<svg width="293" height="41" viewBox="0 0 293 41" fill="none" xmlns="http://www.w3.org/2000/svg">
<path d="M0.513406 3.63636H11.5219L18.6242 18.4091H18.9083L26.0106 3.63636H37.0191L23.6668 28.5653V40H13.8657V28.5653L0.513406 3.63636ZM46.585 40.4972C43.6257 40.4972 41.0925 39.9112 38.9855 38.7393C36.8785 37.5556 35.2628 35.9103 34.1382 33.8033C33.0137 31.6844 32.4514 29.2282 32.4514 26.4347C32.4514 23.6411 33.0137 21.1908 34.1382 19.0838C35.2628 16.965 36.8785 15.3196 38.9855 14.1477C41.0925 12.964 43.6257 12.3722 46.585 12.3722C49.5442 12.3722 52.0774 12.964 54.1844 14.1477C56.2914 15.3196 57.9072 16.965 59.0317 19.0838C60.1562 21.1908 60.7185 23.6411 60.7185 26.4347C60.7185 29.2282 60.1562 31.6844 59.0317 33.8033C57.9072 35.9103 56.2914 37.5556 54.1844 38.7393C52.0774 39.9112 49.5442 40.4972 46.585 40.4972ZM46.656 33.2528C47.4846 33.2528 48.2007 32.9747 48.8044 32.4183C49.4081 31.862 49.8757 31.0689 50.2071 30.0391C50.5386 29.0092 50.7043 27.7841 50.7043 26.3636C50.7043 24.9313 50.5386 23.7062 50.2071 22.6882C49.8757 21.6584 49.4081 20.8653 48.8044 20.3089C48.2007 19.7526 47.4846 19.4744 46.656 19.4744C45.78 19.4744 45.0284 19.7526 44.401 20.3089C43.7736 20.8653 43.2942 21.6584 42.9628 22.6882C42.6314 23.7062 42.4656 24.9313 42.4656 26.3636C42.4656 27.7841 42.6314 29.0092 42.9628 30.0391C43.2942 31.0689 43.7736 31.862 44.401 32.4183C45.0284 32.9747 45.78 33.2528 46.656 33.2528ZM82.3804 28.0682V12.7273H92.1816V40H82.8776V34.8153H82.5935C82.0016 36.5554 80.9659 37.9167 79.4862 38.8991C78.0066 39.8698 76.2488 40.3551 74.2128 40.3551C72.307 40.3551 70.638 39.9171 69.2057 39.0412C67.7852 38.1652 66.6785 36.9579 65.8854 35.419C65.1041 33.8802 64.7076 32.1165 64.6958 30.1278V12.7273H74.4969V28.0682C74.5087 29.4176 74.852 30.477 75.5267 31.2464C76.2133 32.0159 77.1721 32.4006 78.4031 32.4006C79.2199 32.4006 79.9242 32.2289 80.5161 31.8857C81.1198 31.5305 81.5814 31.0334 81.901 30.3942C82.2325 29.7431 82.3923 28.9678 82.3804 28.0682ZM106.257 40L95.5329 3.63636H106.541L111.513 26.0085H111.797L117.692 3.63636H126.357L132.252 26.0795H132.536L137.507 3.63636H148.516L137.791 40H128.345L122.166 19.6875H121.882L115.703 40H106.257ZM151.854 40V12.7273H161.655V40H151.854ZM156.755 9.88636C155.429 9.88636 154.292 9.44839 153.345 8.57244C152.398 7.6965 151.925 6.64299 151.925 5.41193C151.925 4.18087 152.398 3.12737 153.345 2.25142C154.292 1.37547 155.429 0.9375 156.755 0.9375C158.092 0.9375 159.228 1.37547 160.164 2.25142C161.111 3.12737 161.584 4.18087 161.584 5.41193C161.584 6.64299 161.111 7.6965 160.164 8.57244C159.228 9.44839 158.092 9.88636 156.755 9.88636ZM182.913 12.7273V19.8295H164.944V12.7273H182.913ZM168.424 6.19318H178.226V31.2287C178.226 31.6075 178.291 31.9271 178.421 32.1875C178.551 32.4361 178.752 32.6255 179.025 32.7557C179.297 32.8741 179.646 32.9332 180.072 32.9332C180.368 32.9332 180.711 32.8977 181.102 32.8267C181.504 32.7557 181.8 32.6965 181.99 32.6491L183.41 39.5384C182.972 39.6686 182.345 39.8284 181.528 40.0178C180.723 40.2071 179.764 40.3314 178.652 40.3906C176.403 40.509 174.515 40.2782 172.988 39.6982C171.461 39.1063 170.312 38.1771 169.543 36.9105C168.774 35.6439 168.401 34.0578 168.424 32.152V6.19318ZM197.3 24.6591V40H187.498V3.63636H196.945V17.9119H197.229C197.844 16.1719 198.868 14.8165 200.3 13.8459C201.733 12.8634 203.455 12.3722 205.467 12.3722C207.397 12.3722 209.072 12.8101 210.492 13.6861C211.924 14.562 213.031 15.7694 213.812 17.3082C214.605 18.8471 214.996 20.6108 214.984 22.5994V40H205.183V24.6591C205.195 23.3097 204.858 22.2502 204.171 21.4808C203.496 20.7114 202.532 20.3267 201.277 20.3267C200.484 20.3267 199.785 20.5043 199.182 20.8594C198.59 21.2027 198.128 21.6998 197.797 22.3509C197.477 22.9901 197.311 23.7595 197.3 24.6591ZM219.681 3.63636H231.968L240.419 24.233H240.845L249.297 3.63636H261.584V40H251.925V18.9773H251.641L243.544 39.7159H237.72L229.624 18.8352H229.34V40H219.681V3.63636ZM279.473 40.4972C276.561 40.4972 274.052 39.9408 271.945 38.8281C269.849 37.7036 268.234 36.0937 267.097 33.9986C265.973 31.8916 265.41 29.3703 265.41 26.4347C265.41 23.6174 265.979 21.1553 267.115 19.0483C268.251 16.9413 269.855 15.3018 271.927 14.13C273.998 12.9581 276.443 12.3722 279.26 12.3722C281.32 12.3722 283.184 12.6918 284.853 13.331C286.522 13.9702 287.948 14.8994 289.132 16.1186C290.316 17.326 291.227 18.7938 291.866 20.522C292.506 22.2502 292.825 24.1974 292.825 26.3636V28.6364H268.464V23.2386H283.805C283.793 22.4574 283.592 21.7708 283.202 21.179C282.823 20.5753 282.308 20.1077 281.657 19.7763C281.018 19.433 280.29 19.2614 279.473 19.2614C278.68 19.2614 277.952 19.433 277.289 19.7763C276.626 20.1077 276.093 20.5694 275.691 21.1612C275.3 21.7531 275.093 22.4455 275.07 23.2386V29.0625C275.07 29.9384 275.253 30.7197 275.62 31.4062C275.987 32.0928 276.514 32.6314 277.2 33.022C277.887 33.4126 278.715 33.608 279.686 33.608C280.361 33.608 280.976 33.5133 281.533 33.3239C282.101 33.1345 282.586 32.8622 282.989 32.5071C283.391 32.1402 283.687 31.7022 283.876 31.1932H292.825C292.517 33.0871 291.789 34.7325 290.641 36.1293C289.493 37.5142 287.972 38.5914 286.078 39.3608C284.196 40.1184 281.994 40.4972 279.473 40.4972Z" fill="black"/>
</svg>
